# File created by Blade
# Date/Time:  Wed Apr 08 14:55:03 2015
# Frame Rate: 120.000 fps
#------------------------------------------------------
:FULLY-SPECIFIED
:DEGREES
2053
root 3.794251 32.880565 -6.789128 22.548912 -18.854942 -2.295958
Spine -12.025766 -4.073359 1.684512
Head -17.827231 12.074154 3.919390
LeftShoulder -14.316955 37.425815 12.408624
LeftArm 59.649599 9.809879 -77.571747
LeftForeArm -3.445041 -0.000000 121.604104
LeftHand 10.338082 -0.000000 5.345085
LeftHandThumb1 -26.253704 0.000000 33.147579
RightShoulder -0.821495 -5.990300 -18.810782
RightArm 14.934392 -23.528137 85.923145
RightForeArm 3.502839 -0.000000 118.479125
RightHand 10.803008 -0.000000 -0.487155
RightHandThumb1 -24.326973 -0.000000 -32.862282
LeftUpLeg -35.505332 -6.109024 2.420993
LeftLeg 19.775436 -0.000000 -0.000000
LeftFoot -3.967203 15.873165 -13.771207
LeftToeBase -9.530011 -0.000000 0.000000
RightUpLeg -12.016025 -2.370408 0.549766
RightLeg 2.881839 -0.000000 -0.000000
RightFoot -6.431903 -14.308735 6.773340
RightToeBase -10.847446 -0.000000 0.000000
2054
root 3.756719 32.840265 -6.694896 22.221581 -19.149514 -2.587662
Spine -11.757621 -4.166150 1.750210
Head -17.215480 12.317322 4.302055
LeftShoulder -14.329178 37.537064 12.500940
LeftArm 59.768711 9.900814 -77.476916
LeftForeArm -3.496095 -0.000000 121.506918
LeftHand 10.282167 0.000000 5.286049
LeftHandThumb1 -26.253704 0.000000 33.147579
RightShoulder -0.846939 -6.115838 -18.773419
RightArm 15.039560 -23.864421 85.511906
RightForeArm 3.611846 -0.000000 118.261798
RightHand 11.015306 -0.000000 -0.571601
RightHandThumb1 -24.326973 -0.000000 -32.862282
LeftUpLeg -35.328034 -5.635824 2.572700
LeftLeg 20.936596 -0.000000 -0.000000
LeftFoot -4.564949 15.017012 -14.131084
LeftToeBase -9.538270 -0.000000 0.000000
RightUpLeg -11.425000 -2.111451 0.741112
RightLeg 2.939175 -0.000000 -0.000000
RightFoot -7.019159 -14.287380 7.105557
RightToeBase -10.340281 -0.000000 0.000000
2055
root 3.721394 32.796834 -6.596422 21.851540 -19.416579 -2.842134
Spine -11.476648 -4.242117 1.788938
Head -16.558237 12.489937 4.637826
LeftShoulder -14.252074 37.670156 12.612188
LeftArm 59.822525 9.931070 -77.427707
LeftForeArm -3.470042 -0.000000 121.470475
LeftHand 10.082749 -0.000000 5.174861
LeftHandThumb1 -26.253704 0.000000 33.147579
RightShoulder -0.927677 -6.174615 -18.764359
RightArm 15.091992 -24.215038 85.119145
RightForeArm 3.752322 -0.000000 118.089941
RightHand 10.978726 -0.000000 -0.624090
RightHandThumb1 -24.326973 -0.000000 -32.862282
LeftUpLeg -35.041673 -5.359864 2.746904
LeftLeg 21.813856 -0.000000 -0.000000
LeftFoot -5.020393 14.518819 -14.017686
LeftToeBase -9.500503 -0.000000 0.000000
RightUpLeg -10.795495 -1.921507 0.894869
RightLeg 3.024276 -0.000000 -0.000000
RightFoot -7.754424 -14.176669 7.582703
RightToeBase -9.840376 -0.000000 0.000000
2056
root 3.692724 32.753970 -6.494389 21.443098 -19.628560 -2.973036
Spine -11.221719 -4.429506 1.748613
Head -15.862441 12.645674 4.927472
LeftShoulder -14.198249 37.862134 12.659077
LeftArm 59.865719 9.908223 -77.365596
LeftForeArm -3.638009 -0.000000 121.456536
LeftHand 9.930376 -0.000000 5.166495
LeftHandThumb1 -26.253704 0.000000 33.147579
RightShoulder -1.012847 -6.221871 -18.750791
RightArm 15.189779 -24.616272 84.671351
RightForeArm 3.787080 -0.000000 117.937057
RightHand 10.912890 -0.000000 -0.730454
RightHandThumb1 -24.326973 -0.000000 -32.862282
LeftUpLeg -34.667803 -5.341350 2.898341
LeftLeg 22.432426 -0.000000 -0.000000
LeftFoot -5.454809 14.094805 -14.060306
LeftToeBase -9.670844 -0.000000 0.000000
RightUpLeg -10.197565 -1.905746 0.936126
RightLeg 3.212742 -0.000000 -0.000000
RightFoot -8.591130 -13.806821 8.127370
RightToeBase -9.045456 -0.000000 0.000000
